<?xml version="1.0" standalone="no"?>
<!DOCTYPE svg PUBLIC "-//W3C//DTD SVG 20010904//EN"
 "http://www.w3.org/TR/2001/REC-SVG-20010904/DTD/svg10.dtd">
<svg version="1.0" xmlns="http://www.w3.org/2000/svg"
 width="655.000000pt" height="321.000000pt" viewBox="0 0 655.000000 321.000000"
 preserveAspectRatio="xMidYMid meet">

<g transform="translate(0.000000,321.000000) scale(0.100000,-0.100000)"
fill="#000000" stroke="none">
<path d="M3845 3156 c-44 -19 -64 -47 -71 -97 -5 -35 -2 -49 14 -69 18 -22 28
-25 87 -25 63 0 68 2 96 33 29 32 39 85 23 127 -15 39 -93 56 -149 31z"/>
<path d="M3337 3006 c-34 -15 -47 -32 -47 -64 0 -34 -28 -83 -66 -117 -29 -25
-36 -39 -41 -82 l-6 -53 40 0 40 0 -4 -52 c-3 -29 -13 -132 -24 -228 -36 -324
-36 -294 -1 -329 35 -35 74 -40 138 -17 22 7 72 19 112 26 71 12 75 14 89 47
8 19 13 47 11 62 -3 26 -4 26 -90 29 l-88 3 0 53 c0 58 16 282 26 359 l6 47
83 0 83 0 11 44 c6 25 11 61 11 81 l0 37 -86 -3 -86 -4 7 87 7 88 -48 -1 c-27
0 -62 -6 -77 -13z"/>
<path d="M144 2880 c-32 -13 -82 -76 -89 -112 -3 -18 -5 -173 -3 -345 3 -297
4 -313 24 -339 11 -15 33 -37 48 -48 26 -20 41 -21 261 -21 222 0 235 1 262
21 15 12 37 36 48 55 19 32 20 52 20 359 0 310 -1 327 -21 360 -11 19 -35 45
-54 57 -32 22 -41 23 -254 22 -122 0 -230 -4 -242 -9z m474 -40 c56 -34 73
-74 70 -161 -3 -64 -8 -83 -33 -124 -54 -87 -146 -134 -307 -157 -76 -11 -78
-12 -78 -39 0 -37 17 -79 42 -106 21 -22 28 -23 185 -23 l163 0 0 -34 c0 -18
-5 -47 -11 -63 -10 -29 -15 -32 -110 -52 -163 -34 -268 -24 -344 33 -136 104
-137 388 -2 568 54 72 129 133 192 158 70 27 188 27 233 0z"/>
<path d="M361 2684 c-23 -16 -81 -126 -81 -153 0 -21 105 -5 170 27 47 23 57
33 69 69 12 34 13 44 2 57 -19 22 -128 22 -160 0z"/>
<path d="M940 2860 c-8 -5 -47 -17 -87 -26 -65 -14 -73 -19 -82 -46 -6 -17
-11 -46 -11 -64 l0 -34 50 0 50 0 -1 -97 c0 -54 -6 -177 -13 -273 -15 -196
-13 -205 47 -237 40 -21 177 -29 234 -14 102 28 222 143 283 273 52 110 90
314 90 480 l0 48 -46 0 c-63 0 -117 -17 -156 -50 l-32 -27 17 -53 c39 -120 14
-314 -55 -422 -41 -65 -81 -88 -153 -88 l-58 0 7 123 c4 67 14 190 22 274 9
84 13 164 10 178 -14 54 -74 82 -116 55z"/>
<path d="M1935 2858 c-173 -23 -318 -181 -362 -393 -27 -134 2 -269 74 -337
75 -71 204 -87 375 -47 99 23 108 32 108 110 l0 39 -158 0 c-198 0 -202 2
-227 128 -7 32 -6 32 32 32 59 0 166 26 226 55 140 66 208 236 138 349 -36 57
-102 78 -206 64z m59 -183 c12 -33 -18 -88 -63 -113 -29 -16 -132 -41 -173
-42 -18 0 31 110 65 148 18 19 31 22 93 22 55 0 73 -4 78 -15z"/>
<path d="M2415 2855 c-16 -8 -54 -19 -83 -25 -59 -13 -72 -29 -75 -93 l-2 -42
53 -3 c61 -4 57 15 41 -186 -10 -132 -49 -400 -64 -438 -6 -16 0 -18 50 -18
64 0 140 17 154 34 5 6 17 83 26 171 20 182 35 221 126 333 61 73 103 102 153
102 l36 0 0 -47 c0 -61 -16 -232 -36 -392 -17 -137 -12 -168 32 -192 20 -10
33 -11 67 -1 23 7 73 19 111 28 62 15 69 20 82 50 8 18 14 47 14 64 l0 30 -61
0 -62 0 7 83 c3 45 14 166 22 269 9 102 14 197 10 211 -18 73 -184 93 -300 37
-23 -11 -72 -49 -107 -85 l-66 -66 7 49 c15 115 -42 169 -135 127z"/>
<path d="M3815 2854 c-22 -8 -61 -20 -86 -25 -53 -11 -69 -35 -69 -99 l0 -40
56 0 56 0 -6 -77 c-4 -43 -16 -172 -28 -286 -20 -187 -20 -212 -7 -235 23 -42
57 -48 135 -24 38 11 86 24 107 27 43 7 57 30 57 96 l0 39 -55 0 -55 0 0 63
c0 34 9 154 20 267 25 257 25 243 -6 279 -29 35 -56 38 -119 15z"/>
<path d="M142 1523 c-18 -9 -45 -32 -60 -51 l-27 -35 0 -578 c0 -568 0 -578
21 -605 11 -15 33 -37 48 -48 26 -20 40 -21 339 -21 l312 0 34 24 c62 44 61
34 61 654 l0 564 -22 33 c-13 18 -36 43 -51 54 -27 20 -42 21 -325 23 -260 3
-301 1 -330 -14z m658 -47 c29 -31 29 -47 2 -311 -20 -187 -62 -702 -62 -747
0 -15 10 -18 60 -18 l60 0 0 -40 c0 -65 -16 -87 -69 -95 -25 -4 -72 -16 -104
-26 -64 -22 -87 -19 -117 14 -15 15 -20 35 -20 76 l0 55 -36 -52 c-83 -118
-238 -137 -346 -42 -147 129 -117 434 61 619 83 87 150 116 261 116 47 0 95
-3 106 -8 20 -7 22 -3 27 50 4 32 10 104 13 161 l7 102 -57 0 -56 0 0 43 c0
50 22 87 53 88 12 0 47 8 77 19 78 26 112 25 140 -4z"/>
<path d="M360 844 c-37 -32 -75 -103 -95 -181 -23 -86 -19 -141 13 -204 27
-54 27 -54 78 -57 49 -3 53 -1 83 35 35 42 98 160 129 238 11 28 22 83 26 123
l7 72 -105 0 c-98 0 -106 -2 -136 -26z"/>
<path d="M1113 1333 c-12 -2 -36 -17 -53 -33 -26 -24 -30 -35 -30 -78 0 -43 4
-54 26 -71 31 -25 89 -27 139 -7 38 16 50 34 59 93 5 35 2 46 -16 68 -23 27
-77 39 -125 28z"/>
<path d="M6265 1326 c-42 -19 -62 -45 -70 -93 -6 -39 -4 -46 25 -74 29 -29 35
-31 87 -27 48 4 61 10 85 37 28 31 37 85 22 126 -15 39 -93 56 -149 31z"/>
<path d="M3638 1173 c-30 -12 -38 -21 -38 -42 -1 -41 -34 -105 -70 -133 -29
-23 -34 -33 -38 -82 l-4 -56 37 0 37 0 -7 -92 c-4 -51 -17 -174 -30 -273 -25
-203 -21 -236 25 -260 36 -19 66 -19 117 -1 22 8 74 20 115 26 85 14 98 27 98
100 l0 40 -90 0 -91 0 6 73 c3 39 10 140 16 222 6 83 13 153 16 158 2 4 40 7
84 7 91 0 91 0 104 104 l7 57 -88 -2 -89 -2 2 39 c2 22 5 60 8 87 l6 47 -48
-1 c-26 0 -65 -7 -85 -16z"/>
<path d="M5753 1173 c-27 -14 -34 -25 -43 -70 -9 -42 -21 -63 -55 -98 -70 -70
-75 -145 -10 -145 l35 0 -5 -52 c-3 -29 -15 -134 -25 -233 -11 -99 -23 -205
-26 -235 -5 -47 -3 -59 15 -82 29 -37 80 -45 145 -25 28 9 82 21 120 28 63 11
69 14 82 45 8 18 14 47 14 64 l0 30 -90 0 -90 0 0 38 c0 48 18 302 26 370 l6
52 84 0 83 0 10 38 c6 20 11 56 11 80 l0 43 -85 -3 -85 -3 6 88 7 87 -49 -1
c-27 0 -63 -7 -81 -16z"/>
<path d="M1090 1030 c-8 -5 -47 -17 -86 -26 l-72 -16 -12 -43 c-19 -69 -13
-80 48 -83 l52 -3 0 -42 c0 -56 -16 -231 -36 -390 -18 -143 -12 -174 32 -198
21 -11 33 -11 72 1 26 7 76 20 111 30 55 14 67 21 78 46 6 16 12 44 13 62 l0
32 -61 0 -61 0 7 98 c3 53 13 165 21 247 20 215 19 241 -11 270 -25 26 -68 32
-95 15z"/>
<path d="M1540 1030 c-8 -5 -47 -17 -87 -26 -65 -14 -73 -19 -82 -46 -6 -17
-11 -46 -11 -64 l0 -34 53 0 52 0 -3 -97 c-2 -54 -10 -177 -17 -273 -15 -202
-12 -212 66 -242 50 -19 165 -23 221 -8 98 28 219 145 278 272 53 112 90 310
90 474 l0 54 -46 0 c-62 0 -117 -17 -155 -50 l-32 -26 18 -53 c13 -42 16 -76
13 -164 -5 -123 -21 -182 -70 -259 -41 -65 -81 -88 -153 -88 l-58 0 7 123 c4
67 14 185 22 262 8 77 14 154 14 171 0 60 -72 105 -120 74z"/>
<path d="M2532 1030 c-250 -37 -432 -366 -347 -630 19 -59 66 -115 118 -142
63 -33 214 -35 327 -5 l85 22 12 50 c7 28 11 56 8 63 -3 9 -45 12 -162 12
-199 0 -203 2 -228 128 -7 32 -6 32 32 32 59 0 166 26 226 55 136 64 204 222
144 335 -36 68 -108 95 -215 80z m61 -205 c-5 -70 -58 -109 -169 -124 -37 -6
-69 -9 -71 -8 -6 7 49 123 68 144 21 22 30 24 99 21 l75 -3 -2 -30z"/>
<path d="M2985 1024 c-22 -8 -62 -20 -88 -25 -54 -12 -67 -31 -67 -100 l0 -39
50 0 50 0 0 -47 c0 -128 -42 -470 -69 -560 l-10 -33 58 0 c32 0 80 7 108 15
58 17 51 -5 78 248 8 81 21 149 31 169 25 51 98 149 134 183 l33 30 -7 -53
c-4 -29 -9 -59 -12 -67 -5 -12 2 -15 32 -14 22 0 54 5 73 12 31 11 37 19 56
82 12 39 29 85 39 103 17 32 17 33 -12 61 -77 78 -206 48 -304 -70 l-34 -41 0
57 c1 50 -2 60 -27 81 -32 27 -55 29 -112 8z"/>
<path d="M4350 1029 c-83 -14 -138 -45 -216 -123 -57 -58 -77 -86 -102 -148
-89 -214 -50 -427 92 -500 62 -33 213 -35 326 -5 l85 22 13 48 c22 78 24 77
-158 77 -161 0 -161 0 -185 26 -14 15 -27 43 -31 63 -3 20 -8 44 -11 54 -4 14
2 17 34 17 60 0 173 28 229 55 134 66 199 221 142 335 -35 70 -110 96 -218 79z
m66 -184 c3 -8 0 -30 -6 -50 -18 -54 -76 -85 -187 -98 -51 -6 -54 3 -22 73 36
79 52 90 136 90 55 0 75 -4 79 -15z"/>
<path d="M4835 1025 c-16 -8 -54 -19 -83 -25 -59 -13 -70 -27 -74 -91 l-3 -44
53 -3 52 -3 0 -37 c0 -118 -36 -421 -65 -545 l-13 -57 48 0 c51 0 136 15 157
28 7 4 19 76 30 176 16 159 20 172 52 227 80 136 160 209 227 209 42 0 43 0
39 -32 -3 -18 -9 -94 -15 -168 -6 -74 -18 -185 -26 -247 -16 -124 -11 -151 32
-179 22 -15 32 -16 67 -6 23 7 74 20 114 29 65 15 73 19 83 46 5 17 10 45 10
63 l0 34 -61 0 -61 0 6 73 c19 243 38 444 41 455 7 20 -12 60 -38 76 -60 40
-189 38 -271 -4 -22 -12 -70 -49 -105 -83 l-63 -62 5 50 c11 109 -48 160 -138
120z"/>
<path d="M6235 1024 c-22 -8 -61 -20 -87 -25 -39 -9 -48 -15 -57 -41 -6 -17
-11 -46 -11 -64 l0 -34 55 0 55 0 0 -32 c-1 -39 -23 -277 -41 -434 -12 -102
-11 -114 4 -138 25 -37 58 -41 135 -18 37 12 84 24 104 27 44 7 56 25 60 86
l3 44 -59 3 -59 3 7 112 c3 62 13 185 22 275 17 173 15 201 -16 232 -23 23
-59 24 -115 4z"/>
</g>
</svg>
